<?xml version="1.0" standalone="no"?>
<!DOCTYPE svg PUBLIC "-//W3C//DTD SVG 20010904//EN"
 "http://www.w3.org/TR/2001/REC-SVG-20010904/DTD/svg10.dtd">
<svg version="1.0" xmlns="http://www.w3.org/2000/svg"
 width="275.000000pt" height="280.000000pt" viewBox="0 0 275.000000 280.000000"
 preserveAspectRatio="xMidYMid meet">
<metadata>
Created by potrace 1.10, written by Peter Selinger 2001-2011
</metadata>
<g transform="translate(0.000000,280.000000) scale(0.100000,-0.100000)"
fill="#000000" stroke="none">
<path d="M1793 2461 c-197 -49 -326 -178 -392 -395 -15 -50 -22 -97 -22 -165
0 -153 31 -257 116 -386 30 -46 55 -86 55 -89 0 -2 -30 16 -67 41 -38 25 -113
68 -167 95 -55 28 -130 70 -166 94 l-67 44 -6 65 c-3 35 -15 82 -26 103 -23
45 -82 100 -123 114 -22 8 -27 15 -22 27 23 55 10 195 -21 221 -15 12 -79 -12
-113 -43 l-22 -21 -34 37 c-19 21 -43 37 -56 37 -21 0 -22 -2 -18 -129 l3
-129 -57 -16 c-38 -10 -74 -30 -107 -58 -42 -37 -56 -59 -96 -153 -26 -60 -56
-122 -66 -137 -26 -36 -24 -65 9 -96 15 -15 38 -50 51 -79 18 -39 33 -57 59
-69 33 -15 41 -15 106 -1 l71 16 38 -39 c20 -22 37 -43 37 -48 0 -18 -46 -77
-69 -88 -18 -9 -35 -8 -84 7 -63 19 -90 41 -132 111 -24 40 -64 50 -72 19 -3
-14 -13 -21 -29 -21 -18 0 -24 -5 -24 -22 0 -13 4 -29 9 -37 6 -9 5 -21 -2
-33 -10 -15 -8 -25 6 -49 9 -17 14 -35 11 -40 -12 -20 16 -38 45 -29 25 7 31
3 67 -44 47 -60 154 -155 204 -182 26 -14 57 -18 121 -19 l87 0 5 -58 c5 -51
45 -152 67 -167 4 -3 10 -34 13 -70 3 -36 15 -94 26 -130 11 -35 18 -66 16
-69 -3 -2 -46 6 -96 18 -102 25 -149 22 -201 -13 -36 -24 -62 -76 -41 -83 7
-3 15 -20 19 -38 3 -19 15 -41 25 -51 10 -9 19 -25 19 -34 0 -9 9 -25 19 -34
17 -16 46 -17 337 -11 316 6 371 11 407 43 13 11 36 15 85 13 195 -7 186 -8
225 22 43 32 49 33 72 7 26 -29 62 -25 130 16 197 118 310 338 308 604 -1 175
-31 306 -123 535 -40 101 -50 197 -26 277 9 30 22 61 30 67 12 10 15 3 21 -41
13 -96 48 -154 123 -200 40 -25 69 -19 116 23 57 49 78 121 84 277 6 183 -26
330 -97 440 -64 101 -241 224 -361 251 -65 15 -155 12 -237 -8z m227 -22 c83
-19 184 -75 259 -146 89 -82 111 -115 147 -224 26 -78 28 -96 28 -249 1 -189
-11 -237 -70 -290 -45 -39 -65 -38 -115 7 -51 46 -65 74 -74 145 -14 108 -49
115 -93 21 -23 -50 -27 -71 -27 -153 0 -90 3 -102 49 -220 87 -223 107 -317
107 -494 0 -225 -84 -411 -244 -539 -84 -67 -107 -75 -152 -54 l-33 16 43 98
c59 132 76 200 76 308 0 243 -93 470 -270 657 -69 74 -181 257 -211 348 -10
30 -24 92 -31 136 -28 185 46 396 180 516 111 100 292 149 431 117z m-1306
-258 c27 -28 28 -32 18 -78 -6 -26 -13 -65 -17 -85 -6 -36 -19 -49 -42 -40 -9
3 -13 36 -13 118 0 127 6 136 54 85z m181 -53 c5 -30 1 -63 -9 -98 -19 -65
-19 -63 -2 -57 16 6 46 -12 94 -57 45 -41 60 -73 68 -140 l7 -55 -57 -57 c-31
-31 -55 -59 -52 -61 7 -7 45 16 86 53 l38 35 73 -55 c40 -31 100 -70 134 -87
206 -108 330 -209 437 -354 74 -100 109 -174 142 -296 39 -144 44 -261 16
-402 -16 -84 -31 -130 -54 -168 -17 -28 -34 -50 -37 -48 -9 6 -39 -22 -34 -32
3 -4 -8 -15 -24 -24 -22 -11 -56 -14 -134 -12 l-104 2 23 30 c51 68 68 123 68
235 1 81 -3 116 -18 153 -10 26 -21 46 -23 43 -2 -2 4 -34 13 -72 15 -58 16
-79 6 -147 -15 -103 -46 -168 -114 -240 l-55 -57 -307 0 c-293 0 -306 1 -306
19 0 10 7 24 15 31 8 7 15 17 15 23 0 15 -49 -33 -56 -55 -9 -28 -34 -22 -34
9 0 28 35 73 57 73 7 0 13 5 13 10 0 6 -5 10 -10 10 -20 0 -70 -30 -70 -42 0
-6 -3 -8 -6 -5 -4 4 0 17 9 31 25 38 76 49 191 42 139 -8 156 -11 233 -36 133
-43 215 -61 247 -54 28 6 24 9 -49 29 -44 13 -118 30 -165 40 -125 25 -127 26
-165 108 -65 138 -80 300 -39 420 9 27 14 50 12 52 -4 5 -43 -95 -55 -144 l-8
-34 -28 50 c-15 28 -30 71 -33 95 l-6 43 77 55 c103 73 246 228 176 190 -11
-5 -35 -28 -53 -50 -38 -44 -143 -126 -198 -155 -44 -24 -119 -24 -186 -2 -62
21 -166 105 -225 182 -41 53 -46 56 -79 51 -31 -5 -32 -4 -12 6 29 15 28 26
-3 34 -14 3 -25 10 -25 15 0 17 5 24 17 21 23 -5 22 16 -2 38 -37 35 -33 55 6
34 l32 -16 -7 36 c-10 51 7 46 50 -15 42 -57 130 -132 183 -156 60 -26 146
-21 221 14 60 27 106 63 82 63 -6 0 -31 -9 -57 -20 -26 -11 -48 -20 -50 -20
-3 0 -9 17 -15 38 -5 20 -34 67 -64 103 l-54 67 26 5 c36 8 105 55 172 117 62
59 52 55 -33 -13 -75 -61 -112 -79 -156 -78 -20 0 -68 -7 -108 -16 -70 -15
-123 -12 -123 7 0 6 13 10 29 10 17 0 33 5 36 10 4 6 -6 10 -22 10 -48 0 -73
12 -88 40 -12 23 -12 29 2 42 15 15 17 36 11 88 -2 19 2 26 18 28 17 2 29 -11
63 -78 30 -56 51 -85 69 -93 15 -6 35 -18 46 -26 17 -15 18 -14 15 8 -3 15
-16 31 -34 41 -29 16 -43 33 -97 125 -29 48 -62 59 -92 30 -8 -8 -17 -15 -19
-15 -14 0 77 192 109 229 41 48 124 91 175 91 46 0 67 16 79 60 5 22 15 58 20
80 11 40 54 100 72 100 5 0 -2 -14 -16 -31 -29 -34 -33 -48 -39 -139 -4 -61
-4 -63 9 -35 7 17 13 48 14 71 0 30 8 52 33 84 17 24 36 49 42 56 12 17 20 -2
30 -68z m-519 -573 c-7 -20 -33 -19 -45 2 -7 13 -5 23 6 35 15 17 17 17 30 -2
8 -12 12 -27 9 -35z m368 -341 c15 -45 15 -45 -10 -54 -41 -16 -116 -11 -154
10 l-35 19 48 1 c51 0 80 20 98 66 12 35 32 19 53 -42z m126 -839 c40 -8 75
-13 80 -10 9 5 46 -33 38 -40 -3 -3 -47 -1 -98 5 -108 12 -147 7 -191 -26 -56
-41 -67 -27 -21 27 28 34 14 32 -25 -4 -19 -17 -23 -18 -23 -4 0 15 38 48 70
60 28 10 98 7 170 -8z m900 -115 c0 -5 -5 -10 -11 -10 -5 0 -7 5 -4 10 3 6 8
10 11 10 2 0 4 -4 4 -10z m-1113 -17 c-4 -3 -7 0 -7 7 0 7 3 10 7 7 3 -4 3
-10 0 -14z"/>
<path d="M1770 2343 c-30 -11 -70 -44 -92 -76 -19 -28 -16 -26 29 14 28 25 66
50 85 56 20 7 25 11 13 11 -11 0 -27 -2 -35 -5z"/>
<path d="M1739 2263 c-26 -28 -28 -33 -10 -22 22 14 60 59 49 59 -2 0 -20 -17
-39 -37z"/>
<path d="M1764 2248 l-19 -21 28 18 c28 18 33 25 19 25 -5 0 -17 -10 -28 -22z"/>
<path d="M1790 2215 c-13 -14 -19 -25 -13 -25 6 0 18 11 27 25 9 14 15 25 13
25 -2 0 -14 -11 -27 -25z"/>
<path d="M2167 2090 c18 -4 45 -15 60 -24 l28 -17 -28 25 c-19 17 -39 26 -60
25 l-32 -1 32 -8z"/>
<path d="M1472 2008 c-20 -82 -24 -155 -13 -247 10 -78 37 -178 46 -169 2 2
-5 48 -15 103 -21 111 -25 237 -9 304 5 24 8 45 6 48 -3 2 -9 -16 -15 -39z"/>
<path d="M2136 2021 c-3 -5 9 -9 27 -8 20 0 46 -8 66 -22 42 -30 51 -21 11 13
-32 26 -93 36 -104 17z"/>
<path d="M2130 1961 c-10 -7 -3 -10 29 -9 35 0 49 -5 77 -33 42 -41 56 -32 17
11 -30 33 -94 50 -123 31z"/>
<path d="M1989 1908 c-38 -40 -60 -105 -65 -186 -4 -84 5 -64 25 58 7 44 21
79 41 108 33 46 32 54 -1 20z"/>
<path d="M2119 1890 l-24 -20 27 11 c35 15 70 5 113 -32 21 -18 35 -26 35 -18
0 21 -12 35 -50 58 -44 26 -71 27 -101 1z"/>
<path d="M2134 1836 c-17 -8 -39 -24 -48 -37 -23 -34 -20 -47 4 -16 26 33 82
52 108 38 23 -12 42 -60 42 -103 0 -17 4 -27 10 -23 15 9 12 72 -5 105 -25 49
-57 59 -111 36z"/>
<path d="M1983 1773 c-8 -21 -17 -65 -19 -98 l-4 -60 15 78 c8 43 20 87 25 98
6 10 8 19 5 19 -3 0 -13 -17 -22 -37z"/>
<path d="M1525 1665 c3 -83 21 -173 31 -162 2 2 0 26 -6 53 -6 27 -15 83 -20
124 l-9 75 4 -90z"/>
<path d="M2001 1660 c-6 -28 -10 -74 -10 -103 2 -50 2 -49 9 19 4 39 11 85 15
102 3 18 4 32 2 32 -3 0 -10 -23 -16 -50z"/>
<path d="M1576 1560 c7 -72 22 -127 35 -136 8 -4 9 1 3 17 -4 13 -16 58 -26
99 -17 71 -17 72 -12 20z"/>
<path d="M1630 1540 c0 -7 3 -10 7 -7 3 4 3 10 0 14 -4 3 -7 0 -7 -7z"/>
<path d="M2028 1495 c-1 -30 0 -65 4 -77 3 -13 6 12 7 55 1 89 -6 103 -11 22z"/>
<path d="M1642 1485 c0 -22 4 -53 8 -70 7 -27 8 -28 8 -5 0 14 -3 45 -7 70
l-8 45 -1 -40z"/>
<path d="M1686 1440 c4 -36 13 -76 21 -90 l14 -25 -7 30 c-4 17 -13 57 -20 90
l-13 60 5 -65z"/>
<path d="M1747 1375 c3 -33 9 -69 14 -80 13 -34 9 33 -6 90 l-14 50 6 -60z"/>
<path d="M2063 1375 c0 -22 2 -30 4 -17 2 12 2 30 0 40 -3 9 -5 -1 -4 -23z"/>
<path d="M1791 1330 c-1 -26 18 -105 24 -98 1 1 -3 30 -10 63 -7 33 -14 49
-14 35z"/>
<path d="M2090 1295 c0 -11 10 -52 21 -90 12 -39 35 -128 50 -200 l29 -130 -4
85 c-3 69 -12 111 -49 220 -26 74 -47 126 -47 115z"/>
<path d="M1841 1274 c-1 -26 27 -121 38 -128 5 -3 1 20 -9 52 -10 31 -20 66
-23 77 -5 19 -5 19 -6 -1z"/>
<path d="M1901 1243 c-1 -32 15 -111 57 -263 32 -120 36 -149 37 -255 0 -66
-3 -142 -7 -170 l-6 -50 20 60 c16 45 21 86 21 160 0 105 -6 138 -66 340 -19
66 -39 138 -45 160 -6 24 -10 31 -11 18z"/>
<path d="M1930 920 c0 -7 3 -10 7 -7 3 4 3 10 0 14 -4 3 -7 0 -7 -7z"/>
<path d="M1945 841 c3 -35 6 -125 6 -200 1 -115 3 -128 11 -86 9 53 3 229 -12
305 -8 41 -9 39 -5 -19z"/>
<path d="M925 1863 c15 -23 33 -66 40 -95 l13 -53 1 40 c1 30 4 36 11 25 7
-11 10 -11 10 -2 0 7 5 10 12 6 7 -5 8 -3 3 7 -16 25 -39 49 -49 49 -5 0 -22
15 -38 33 l-29 32 26 -42z"/>
<path d="M593 1839 c-36 -11 -77 -74 -71 -111 4 -27 47 -42 93 -34 41 8 105
65 105 94 0 39 -70 67 -127 51z m101 -48 c3 -5 0 -14 -8 -20 -11 -9 -15 -7
-19 9 -5 20 16 29 27 11z"/>
<path d="M775 1790 c-16 -7 -17 -9 -3 -9 9 -1 20 4 23 9 7 11 7 11 -20 0z"/>
<path d="M760 1750 c-13 -8 -12 -10 3 -10 9 0 17 5 17 10 0 12 -1 12 -20 0z"/>
<path d="M720 1719 c0 -5 9 -9 20 -9 11 0 20 2 20 4 0 2 -9 6 -20 9 -11 3 -20
1 -20 -4z"/>
<path d="M895 1710 c-3 -5 -2 -10 4 -10 5 0 13 5 16 10 3 6 2 10 -4 10 -5 0
-13 -4 -16 -10z"/>
<path d="M665 1680 c-19 -7 -19 -8 -2 -15 12 -5 24 -2 35 9 13 13 14 16 2 15
-8 0 -24 -4 -35 -9z"/>
<path d="M853 1673 c4 -3 10 -3 14 0 3 4 0 7 -7 7 -7 0 -10 -3 -7 -7z"/>
<path d="M620 1661 c0 -13 28 -33 41 -29 6 2 0 12 -15 21 -14 10 -26 13 -26 8z"/>
<path d="M591 1640 c15 -22 59 -47 59 -32 0 4 -17 18 -37 31 l-38 24 16 -23z"/>
<path d="M810 1640 c0 -13 11 -13 30 0 12 8 11 10 -7 10 -13 0 -23 -4 -23 -10z"/>
<path d="M775 1600 c-19 -8 -19 -9 2 -9 12 -1 25 4 28 9 7 12 -2 12 -30 0z"/>
<path d="M735 1570 c-19 -8 -19 -9 3 -9 12 -1 22 4 22 9 0 6 -1 10 -2 9 -2 0
-12 -4 -23 -9z"/>
<path d="M685 1520 c3 -5 15 -10 26 -10 10 0 19 5 19 10 0 6 -12 10 -26 10
-14 0 -23 -4 -19 -10z"/>
<path d="M1092 1378 c45 -68 88 -133 95 -144 10 -16 11 -14 3 12 -4 17 -13 42
-20 54 -18 34 -141 194 -152 199 -6 2 28 -53 74 -121z"/>
<path d="M968 1444 c17 -31 92 -117 92 -106 0 12 -73 107 -91 117 -8 6 -8 2
-1 -11z"/>
<path d="M1000 1453 c0 -4 19 -28 41 -53 l41 -45 -33 48 c-34 49 -49 65 -49
50z"/>
<path d="M1271 1304 c0 -11 3 -14 6 -6 3 7 2 16 -1 19 -3 4 -6 -2 -5 -13z"/>
<path d="M1247 1245 c3 -38 7 -72 9 -74 7 -8 2 94 -6 119 -5 15 -6 -4 -3 -45z"/>
<path d="M1307 1146 c-5 -81 -6 -150 -4 -153 8 -8 19 157 15 232 -2 53 -5 35
-11 -79z"/>
<path d="M1603 1250 c108 -165 155 -278 177 -425 6 -44 14 -96 17 -115 l6 -35
7 33 c15 68 -24 262 -73 357 -27 54 -95 154 -126 185 l-24 25 16 -25z"/>
<path d="M1283 1200 c0 -36 2 -50 4 -32 2 17 2 47 0 65 -2 17 -4 3 -4 -33z"/>
<path d="M1360 1160 c0 -7 3 -10 7 -7 3 4 3 10 0 14 -4 3 -7 0 -7 -7z"/>
<path d="M426 1150 c18 -35 106 -150 115 -150 6 0 -4 19 -20 43 -34 48 -106
130 -95 107z"/>
<path d="M1351 1104 c0 -11 3 -14 6 -6 3 7 2 16 -1 19 -3 4 -6 -2 -5 -13z"/>
<path d="M995 1090 c-85 -23 -90 -26 -71 -33 11 -5 28 -1 42 8 13 8 30 15 38
15 8 0 18 5 21 10 3 6 5 10 3 9 -2 -1 -16 -5 -33 -9z"/>
<path d="M541 1048 c18 -34 71 -100 76 -94 5 4 -76 116 -84 116 -2 0 2 -10 8
-22z"/>
<path d="M1680 1050 c0 -7 3 -10 7 -7 3 4 3 10 0 14 -4 3 -7 0 -7 -7z"/>
<path d="M609 1013 c17 -33 90 -107 98 -100 3 4 -20 33 -51 65 -32 31 -53 47
-47 35z"/>
<path d="M843 1020 c16 -5 38 -5 50 0 17 7 10 9 -28 9 -43 -1 -46 -2 -22 -9z"/>
<path d="M1695 1010 c4 -14 20 -81 36 -149 16 -69 32 -127 34 -130 24 -23 -30
224 -60 276 -15 26 -16 26 -10 3z"/>
<path d="M697 985 c15 -27 50 -58 60 -54 5 2 -9 20 -31 39 -25 22 -35 28 -29
15z"/>
<path d="M808 993 c7 -3 16 -2 19 1 4 3 -2 6 -13 5 -11 0 -14 -3 -6 -6z"/>
<path d="M1129 979 c-19 -16 -20 -18 -4 -10 34 17 51 31 39 31 -7 0 -22 -9
-35 -21z"/>
<path d="M1655 978 c23 -73 35 -126 35 -150 0 -15 4 -28 10 -28 5 0 7 14 4 33
-9 50 -44 167 -50 167 -4 0 -3 -10 1 -22z"/>
<path d="M760 980 c0 -9 39 -25 46 -18 2 3 -7 10 -21 16 -14 6 -25 7 -25 2z"/>
<path d="M1407 932 c-14 -16 -47 -120 -47 -147 1 -20 18 21 24 60 4 22 16 55
26 73 22 36 21 40 -3 14z"/>
<path d="M1630 940 c0 -7 3 -10 7 -7 3 4 3 10 0 14 -4 3 -7 0 -7 -7z"/>
<path d="M1435 889 c-4 -6 -5 -12 -2 -15 2 -3 7 2 10 11 7 17 1 20 -8 4z"/>
<path d="M1416 838 c-3 -13 -5 -32 -5 -43 1 -11 5 -2 10 19 10 42 6 62 -5 24z"/>
<path d="M974 758 c-15 -44 -6 -200 16 -270 11 -38 26 -68 31 -68 7 0 8 8 4
18 -25 65 -39 149 -40 239 0 57 -1 103 -2 103 -1 0 -5 -10 -9 -22z"/>
<path d="M1011 593 c-1 -42 18 -135 31 -148 7 -7 8 -3 5 10 -3 11 -10 45 -16
75 -6 30 -13 64 -15 75 -2 11 -4 6 -5 -12z"/>
<path d="M1062 560 c0 -8 4 -26 8 -40 6 -20 8 -21 8 -5 0 11 -3 29 -8 40 -5
12 -8 14 -8 5z"/>
<path d="M1102 535 c0 -16 2 -22 5 -12 2 9 2 23 0 30 -3 6 -5 -1 -5 -18z"/>
<path d="M1817 521 c-27 -66 -85 -151 -138 -203 -27 -26 -49 -52 -49 -59 0
-13 70 41 104 82 33 39 110 193 104 210 -2 7 -12 -6 -21 -30z"/>
<path d="M1470 532 c0 -50 -103 -155 -184 -188 -51 -21 -59 -34 -22 -34 26 0
140 72 156 98 5 9 10 12 10 6 0 -14 -75 -84 -90 -84 -6 0 -10 -4 -10 -10 0
-20 22 -9 66 35 25 25 44 51 41 58 -2 6 7 27 20 46 20 29 32 91 18 91 -3 0 -5
-8 -5 -18z"/>
<path d="M1767 368 c-9 -13 -27 -36 -41 -52 -14 -16 -26 -32 -26 -34 0 -12 63
55 76 81 17 33 12 36 -9 5z"/>
<path d="M1390 319 c-25 -21 -39 -39 -32 -39 15 0 89 66 82 73 -3 3 -25 -13
-50 -34z"/>
<path d="M1747 302 c-32 -33 -36 -54 -6 -26 20 18 44 54 36 54 -2 0 -15 -13
-30 -28z"/>
<path d="M1415 289 c-16 -16 -25 -29 -19 -29 6 0 23 14 39 30 37 38 20 37 -20
-1z"/>
<path d="M1445 270 c-10 -11 -13 -20 -7 -20 6 0 16 9 22 20 6 11 9 20 7 20 -2
0 -12 -9 -22 -20z"/>
</g>
</svg>
