<?xml version="1.0" standalone="no"?>
<!DOCTYPE svg PUBLIC "-//W3C//DTD SVG 20010904//EN"
 "http://www.w3.org/TR/2001/REC-SVG-20010904/DTD/svg10.dtd">
<svg version="1.0" xmlns="http://www.w3.org/2000/svg"
 width="300.000000pt" height="253.000000pt" viewBox="0 0 300.000000 253.000000"
 preserveAspectRatio="xMidYMid meet">
<metadata>
Created by potrace 1.10, written by Peter Selinger 2001-2011
</metadata>
<g transform="translate(0.000000,253.000000) scale(0.100000,-0.100000)"
fill="#000000" stroke="none">
<path d="M1100 2371 c0 -36 -2 -39 -32 -44 -18 -3 -40 -8 -48 -11 -11 -5 -19
3 -29 29 -7 19 -17 35 -23 35 -10 0 -7 -29 6 -61 5 -11 -5 -24 -34 -44 -44
-31 -87 -87 -111 -145 -17 -43 -18 -152 0 -203 21 -62 84 -132 145 -162 56
-27 56 -28 57 -74 0 -25 4 -67 8 -94 l8 -47 -61 -32 c-35 -19 -93 -64 -138
-108 l-76 -76 -37 30 c-38 30 -145 161 -145 177 0 6 12 22 26 37 14 15 38 52
53 82 37 78 37 193 1 265 -26 51 -104 115 -139 115 -9 0 -47 -44 -86 -96 -38
-53 -75 -100 -81 -105 -7 -6 -59 8 -144 37 -152 52 -153 52 -166 -33 -17 -117
23 -234 102 -300 49 -39 137 -73 192 -73 36 0 40 -3 61 -47 38 -79 106 -166
193 -249 l83 -79 -7 -65 c-4 -36 -5 -81 -2 -100 4 -34 3 -36 -57 -70 -73 -42
-166 -138 -199 -206 -27 -56 -39 -169 -21 -203 24 -43 67 -24 134 61 48 60
104 113 158 149 l44 29 12 -25 c12 -22 10 -27 -42 -76 -71 -67 -115 -155 -122
-241 -4 -52 -2 -67 14 -87 28 -34 48 -23 142 79 45 50 102 103 126 120 l43 30
47 -26 46 -26 -20 -22 c-85 -91 -109 -296 -34 -296 26 0 58 29 126 113 21 26
63 66 93 88 l54 41 75 -11 c94 -14 309 -14 393 -1 61 10 64 10 107 -20 24 -16
68 -58 97 -91 93 -108 105 -119 132 -119 15 0 30 8 36 19 27 51 -2 188 -56
258 -14 19 -24 36 -23 37 2 2 23 13 46 26 l41 23 34 -21 c30 -19 70 -59 191
-189 91 -100 135 59 57 205 -18 34 -55 82 -81 107 -48 45 -49 46 -33 70 l16
25 42 -30 c51 -36 96 -79 164 -158 58 -68 92 -80 113 -40 18 33 6 148 -22 204
-28 60 -102 140 -175 190 l-54 37 0 78 c0 43 -5 101 -11 129 l-11 51 59 62
c70 74 121 144 156 213 l26 51 60 6 c74 6 169 55 208 105 40 52 72 140 73 195
0 54 -18 134 -32 143 -5 3 -70 -15 -144 -41 -74 -27 -136 -46 -138 -44 -1 2
-37 50 -80 107 -42 56 -81 102 -87 102 -27 0 -93 -45 -119 -82 -40 -54 -53
-109 -48 -189 5 -71 40 -154 85 -201 l26 -27 -41 -53 c-22 -29 -56 -70 -75
-92 l-35 -38 -59 58 c-33 33 -88 75 -122 94 -57 33 -61 37 -56 65 2 17 7 61
11 98 7 65 8 68 40 82 53 22 129 100 154 157 32 73 26 195 -13 260 -25 44 -91
111 -117 120 -11 3 -11 11 -2 38 15 40 15 60 2 60 -5 0 -15 -18 -21 -40 -9
-31 -16 -39 -28 -35 -9 4 -30 9 -46 12 -29 5 -30 7 -27 44 5 52 -16 51 -24 -1
-5 -29 -11 -40 -24 -40 -10 0 -32 -3 -49 -6 -28 -6 -32 -4 -42 25 -6 17 -16
31 -21 31 -10 0 -7 -30 6 -60 4 -11 -5 -21 -30 -35 -79 -42 -144 -157 -144
-253 0 -51 16 -109 42 -158 25 -45 100 -108 149 -124 l41 -14 -5 -64 c-2 -35
-7 -65 -10 -68 -3 -3 -22 -1 -43 5 -122 32 -330 32 -497 0 -28 -5 -54 -6 -58
-2 -3 5 -9 36 -12 69 -6 61 -6 62 21 67 45 10 118 63 151 111 17 25 39 74 48
109 16 59 16 68 0 130 -20 81 -60 143 -119 182 -23 16 -45 31 -47 32 -2 2 1
15 8 29 8 19 9 30 1 38 -7 7 -14 0 -23 -23 -11 -29 -15 -32 -41 -27 -16 3 -38
6 -49 6 -17 0 -19 5 -13 40 5 32 3 40 -9 40 -11 0 -15 -11 -15 -39z m132 -93
c101 -43 165 -155 156 -272 -19 -226 -284 -333 -455 -182 -116 102 -126 273
-23 390 80 90 204 115 322 64z m725 17 c140 -42 231 -196 194 -332 -18 -66
-70 -134 -130 -170 -208 -124 -456 58 -407 298 25 118 143 215 267 218 14 1
48 -6 76 -14z m-1360 -320 c57 -49 77 -104 71 -197 -14 -220 -223 -345 -428
-256 -80 34 -139 109 -160 201 -10 48 -5 133 10 157 5 9 42 0 140 -34 86 -30
137 -43 144 -37 6 5 43 52 81 105 39 52 77 96 86 96 8 0 34 -16 56 -35z m1871
-53 c34 -48 69 -96 77 -106 14 -18 19 -17 150 29 75 26 139 44 143 40 16 -16
14 -154 -3 -206 -65 -195 -352 -248 -496 -92 -59 64 -82 123 -82 208 0 46 6
83 17 107 21 44 89 108 114 107 10 0 43 -37 80 -87z m-1306 -237 c4 -102 6
-96 -37 -111 -22 -7 -43 -14 -47 -14 -7 0 -13 29 -23 118 l-6 52 56 0 55 0 2
-45z m775 -37 c-5 -46 -11 -84 -12 -86 -8 -8 -105 34 -101 44 2 6 7 36 11 67
l7 57 52 0 52 0 -9 -82z m-254 -53 c194 -29 326 -91 442 -209 118 -119 169
-250 168 -431 0 -161 -44 -269 -152 -375 -112 -110 -267 -178 -471 -205 -135
-19 -212 -19 -352 0 -340 44 -560 212 -609 463 -7 40 -10 102 -6 167 13 229
115 394 303 492 181 95 446 133 677 98z m-1086 -113 c17 -26 61 -76 97 -111
l66 -63 -26 -55 c-14 -30 -28 -70 -31 -89 -3 -19 -8 -34 -10 -34 -14 0 -104
84 -154 143 -62 74 -124 181 -114 197 3 6 16 10 28 10 16 0 99 37 113 49 0 1
15 -20 31 -47z m1807 23 c27 -14 60 -25 72 -25 13 0 26 -5 29 -10 13 -21 -90
-174 -181 -268 l-32 -33 -32 71 c-18 38 -39 75 -46 81 -11 9 -1 25 51 81 35
38 70 82 77 99 7 16 13 29 13 29 0 0 22 -11 49 -25z m-1697 -750 c10 -34 12
-50 4 -53 -29 -10 -133 -95 -167 -138 -22 -27 -54 -64 -73 -83 -32 -34 -34
-35 -48 -16 -11 15 -13 34 -9 74 13 109 89 218 207 294 l54 35 8 -31 c5 -18
16 -54 24 -82z m1684 46 c103 -77 169 -191 169 -291 0 -21 -7 -43 -15 -50 -16
-13 -23 -7 -121 107 -29 32 -75 75 -103 94 -41 27 -50 38 -45 54 3 11 13 46
22 78 9 31 19 57 23 57 3 0 35 -22 70 -49z m-1566 -341 c-32 -25 -86 -78 -118
-117 -36 -45 -66 -73 -78 -73 -17 0 -19 7 -19 63 0 80 38 162 109 234 l51 51
58 -56 57 -57 -60 -45z m1452 82 c61 -76 100 -185 88 -244 -9 -39 -38 -36 -72
9 -52 68 -121 138 -162 163 -22 14 -41 27 -41 30 0 3 16 16 36 29 19 13 44 37
55 52 19 27 22 28 43 14 13 -8 36 -32 53 -53z m-1126 -158 c42 -7 51 -19 21
-28 -21 -7 -96 -78 -168 -160 -65 -74 -78 -69 -72 28 5 72 21 115 64 173 l24
32 46 -19 c25 -11 63 -23 85 -26z m829 6 c54 -75 83 -211 52 -242 -12 -12 -19
-5 -137 123 -27 30 -63 64 -80 76 -22 16 -26 23 -15 26 8 2 42 13 75 24 80 27
81 27 105 -7z"/>
<path d="M1048 2231 c-46 -15 -87 -50 -115 -99 -76 -130 11 -297 162 -310 74
-6 150 30 191 91 26 37 29 51 29 119 0 69 -3 80 -30 119 -16 23 -48 51 -69 62
-43 23 -126 31 -168 18z m156 -40 c44 -24 86 -83 92 -127 l6 -39 -19 34 c-25
47 -62 72 -114 78 -158 16 -222 -202 -82 -276 50 -26 14 -28 -42 -2 -74 34
-115 95 -115 172 0 73 64 161 128 175 15 3 32 7 37 9 19 6 80 -7 109 -24z m39
-139 c35 -35 38 -43 32 -71 -9 -42 -61 -93 -108 -108 -20 -6 -37 -7 -37 -2 0
5 -5 9 -10 9 -38 0 -82 90 -67 135 10 29 37 76 37 63 0 -4 12 0 28 8 40 21 80
10 125 -34z"/>
<path d="M1792 2219 c-192 -95 -136 -382 77 -397 123 -9 221 84 221 208 0 60
-19 106 -62 147 -67 64 -158 80 -236 42z m177 -27 c44 -20 88 -83 97 -137 12
-81 -34 -161 -111 -196 -43 -20 -125 -26 -125 -9 0 6 12 10 28 10 93 0 155
131 102 218 -52 85 -181 97 -234 20 -28 -39 -30 -10 -3 32 54 80 152 105 246
62z m-81 -102 c59 -36 68 -101 22 -154 -41 -47 -92 -64 -125 -42 -30 20 -53
53 -65 97 -8 28 -6 38 12 65 36 52 102 66 156 34z"/>
<path d="M1355 1470 c-3 -5 -1 -27 5 -49 23 -85 114 -109 176 -47 24 24 34 43
34 65 0 43 -15 39 -29 -9 -12 -40 -49 -70 -86 -70 -29 0 -75 55 -75 89 0 30
-13 41 -25 21z"/>
<path d="M1105 1441 c-68 -17 -105 -50 -105 -92 0 -25 6 -33 35 -45 42 -17 77
-18 145 -2 50 12 100 48 100 74 0 7 -10 25 -23 40 -18 21 -34 27 -73 30 -27 2
-62 -1 -79 -5z m126 -31 c27 -15 24 -46 -7 -66 -35 -23 -162 -31 -188 -11 -26
19 -15 42 31 66 42 22 131 28 164 11z"/>
<path d="M1652 1420 c-61 -57 18 -130 142 -130 91 0 135 36 107 88 -30 57
-202 86 -249 42z m178 -22 c84 -43 47 -97 -55 -83 -65 9 -104 25 -116 48 -29
53 87 77 171 35z"/>
<path d="M980 907 c-49 -25 -30 -99 29 -112 34 -7 66 6 81 36 15 28 4 57 -30
74 -35 18 -48 18 -80 2z m78 -29 c28 -28 8 -58 -38 -58 -26 0 -53 39 -38 57
13 16 60 17 76 1z"/>
<path d="M1922 910 c-75 -32 -25 -153 56 -135 30 6 64 37 75 67 16 45 -75 92
-131 68z m89 -30 c24 -14 24 -35 -1 -60 -24 -24 -57 -26 -82 -3 -21 19 -23 44
-6 61 15 15 63 16 89 2z"/>
<path d="M787 822 c-38 -41 -4 -102 56 -102 37 0 49 7 64 34 15 27 4 55 -28
71 -38 20 -72 19 -92 -3z m93 -28 c19 -18 3 -48 -29 -52 -24 -4 -61 23 -61 44
0 33 58 38 90 8z"/>
<path d="M1663 826 c-17 -8 -39 -29 -48 -46 -14 -27 -15 -37 -4 -62 12 -30 59
-58 95 -58 32 0 82 32 94 60 30 73 -58 141 -137 106z m97 -36 c43 -43 11 -100
-55 -100 -69 0 -99 60 -49 99 34 27 78 27 104 1z"/>
<path d="M1275 809 c-75 -43 -52 -122 37 -122 33 0 47 6 65 27 28 32 29 47 6
75 -21 25 -80 36 -108 20z m85 -34 c29 -35 -18 -75 -72 -62 -33 9 -43 35 -22
58 20 23 76 25 94 4z"/>
<path d="M2108 789 c-21 -12 -24 -59 -6 -77 7 -7 30 -12 53 -12 47 0 65 13 65
50 0 14 -5 31 -12 38 -15 15 -76 15 -100 1z m81 -18 c8 -5 11 -16 6 -30 -8
-25 -56 -29 -75 -6 -25 30 31 60 69 36z"/>
<path d="M988 704 c-57 -30 -63 -81 -15 -129 71 -71 184 -52 200 33 7 36 -18
86 -49 101 -34 15 -103 13 -136 -5z m143 -30 c23 -21 25 -62 3 -92 -34 -50
-164 -13 -164 46 0 28 19 53 50 65 26 11 91 0 111 -19z"/>
<path d="M1886 619 c-59 -47 -17 -117 65 -106 52 7 69 22 69 63 0 60 -79 86
-134 43z m106 -22 c14 -21 9 -36 -17 -53 -37 -24 -90 -8 -90 26 0 43 84 64
107 27z"/>
<path d="M1550 612 c-62 -31 -66 -102 -8 -145 16 -12 48 -22 80 -25 48 -4 56
-1 81 23 46 47 35 120 -23 150 -38 20 -87 19 -130 -3z m138 -35 c29 -27 28
-62 -3 -92 -28 -29 -51 -31 -102 -10 -43 18 -53 30 -53 66 0 63 103 86 158 36z"/>
<path d="M1289 569 c-36 -13 -55 -50 -40 -78 9 -16 21 -21 56 -21 26 0 50 6
59 16 17 16 21 51 8 71 -11 17 -53 23 -83 12z m61 -43 c0 -36 -64 -52 -77 -20
-8 21 21 44 54 44 18 0 23 -6 23 -24z"/>
</g>
</svg>
